<?xml version="1.0" standalone="no"?><!DOCTYPE svg PUBLIC "-//W3C//DTD SVG 1.1//EN" "http://www.w3.org/Graphics/SVG/1.1/DTD/svg11.dtd"><svg class="icon" width="200px" height="200.00px" viewBox="0 0 1024 1024" version="1.1" xmlns="http://www.w3.org/2000/svg"><path d="M632.43 134.76c9.72-1.96 19.74-1.61 29.59-1.04 14.91 2.71 30.09 5.51 43.69 12.53 40.19 18.78 69.32 59.52 73.5 103.75 1.12 17.59 0.65 35.63-4.87 52.52-0.56 1.51-1.31 2.93-2.04 4.35-3.77-1.91-7.95-3.15-11.14-6.01-4.71-4.04-8.61-9-11.77-14.32-1.97-3.25 0.1-7.06 0.12-10.55 3.92-30.53-7.39-62.59-29.58-83.92-12.34-12.06-27.8-20.89-44.45-25.37-14.51-3.38-29.85-4.58-44.42-0.85-3.33 1.2-6.33-1.27-8.91-3.03-6.78-5.64-13.08-12.39-15.66-21.04 8.08-4.05 17.14-5.38 25.94-7.02z" fill="#ec6066" /><path d="M627.4 194.83c3.6-2.12 7.79-2.71 11.87-3.26 14.68-2.3 30.17-0.14 43.39 6.76 21.67 10.63 37.32 32.66 39.92 56.68 0.15 10.35 0.97 21.05-2.68 30.97-10.32-4.61-18.53-12.81-24.83-22.03-2.12-3.19-2.05-7.19-3.05-10.77-2.85-11.42-10.28-21.95-20.96-27.25-5.11-2.86-10.79-4.45-16.56-5.24-5.08-0.69-9.26-3.92-12.96-7.23-5.79-5.28-10.77-11.53-14.14-18.63zM356.3 316.3c0.44 0.44 0.44 0.44 0 0zM214.44 452.57c10.74-1.93 21.7-1.11 32.55-1.26 9.68-0.24 19.32 1.18 28.73 3.38 14.25 3.89 28.52 8.5 41.16 16.33 33.21 18.13 59.17 49 71.68 84.68 2.88 9.42 6.14 18.79 7.49 28.6 2.34 12.6 1.67 25.49 1.37 38.24-2.31 24.78-10.23 49.2-23.56 70.29-18.53 29.37-46.65 52.88-79.38 64.78-43.58 16.36-94.36 12.04-134.5-11.56-15.19-8.54-28.23-20.3-39.99-33.04-25.92-29.79-40.57-69.46-38.84-109.03-0.25-13.58 3.15-26.82 6.26-39.93 5.41-16.78 12.88-33.03 23.35-47.28 24.12-34.13 62.39-57.81 103.68-64.2m11.1 28.14c9.29 0.31 18.63 0.33 27.92 0-4.39-1.21-8.98-0.71-13.47-0.77-4.82 0.11-9.73-0.51-14.45 0.77m-6.07 3.14c-29.32 4.62-56.78 20-76.05 42.57-22.58 25.94-33.78 61.47-29.96 95.64 3.06 31.89 19.09 62.25 43.46 83.01 23.03 20 53.57 31.23 84.08 30.57 36.66 0 72.7-17.47 95.97-45.7 18.59-22.5 29.76-51.6 28.8-80.94 1.37-44.25-24.29-87.37-62.36-109.35-25-14.86-55.27-20.35-83.94-15.8zM735.39 458.01c14.66-4.92 30.15-7.3 45.62-6.73 17.39-0.57 35.07 1.11 51.48 7.23 30.3 9.72 57.3 29.13 76.61 54.38 15.75 20.37 26.24 44.77 30.46 70.14 7.78 44.68-5.19 92.41-34.44 127.07-27.56 33.64-69.63 55.06-113.11 57.03-34.65 2-70.04-7.66-98.52-27.6-25.15-17.21-44.99-41.93-56.76-70.01-5.76-13.87-9.05-28.66-10.87-43.53-0.56-8.26-1.94-16.55-0.74-24.81 1.25-18.33 4.52-36.74 12.26-53.52 12.28-30.36 34.87-56.14 62.61-73.37 11.03-6.92 22.96-12.43 35.4-16.28m34.13 22.72c9.29 0.26 18.63 0.32 27.93-0.03-4.72-1.26-9.63-0.64-14.44-0.75-4.5 0.12-9.12-0.55-13.49 0.78m-7.05 3.22c-22.18 3.76-43.35 13.42-60.56 27.94-27.73 22.89-44.7 58.17-45.38 94.11-0.73 27.05 7.64 54.24 23.33 76.28 16.61 23.5 41.48 41.08 69.23 48.74 26 7.37 54.38 6.03 79.6-3.69 23.09-8.88 43.38-24.74 57.78-44.85 15.34-21.51 24.01-47.99 23.2-74.47 0.4-14.77-2.64-29.47-7.69-43.29-11.32-30.55-34.96-56.29-64.43-70.17-23.14-11.19-49.76-14.68-75.08-10.6z" fill="#ec6066" /><path d="M528.47 253.52c25.17-0.26 50.35-0.02 75.53-0.12 12.57-0.84 23.58 7.08 32 15.59 12.3 13.33 21.26 29.46 27.77 46.31 3.81 8.32 8.1 16.43 12.33 24.55 19.71 39.41 39.95 78.57 59.29 118.16-12.44 3.85-24.37 9.36-35.4 16.28-8.11-14.14-14.47-29.19-21.68-43.78-3.64-7.03-7.21-14.1-10.52-21.29-0.57 0.05-1.73 0.14-2.3 0.19-6.39 16.35-13.78 32.28-20.65 48.44-16.93 38.78-33.89 77.54-50.77 116.35-5.29 12.84-12.51 25.49-23.77 34.02-11.23 8.16-24.91 13.19-38.81 13.67-0.57 14.57-0.1 29.18-0.24 43.77 6.32 0.01 13.41-0.79 18.69 3.5 5.29 4.56 6.08 11.98 5.81 18.54-16.6-0.13-33.2 0.05-49.8-0.06-3.36 0.18-6.63-1.22-8.97-3.61-4.72-4.82-5.97-11.94-5.68-18.45 8.13 0.22 16.27 0.11 24.41 0.08 0.21-14.09-0.22-28.18 0.22-42.25-1.9-0.7-3.88-1.09-5.89-1.02-37.54 0.11-75.08-0.2-112.62 0.15 0.3-12.75 0.97-25.64-1.37-38.24 19.54 0.68 39.12 0.26 58.68 0.22-6.16-13.05-13.35-25.57-19.86-38.44-29.74-56.97-59.28-114.03-88.93-171.04-5.92-11.65-11.77-23.34-18.11-34.75-9.86-0.24-19.82 0.81-29.59-0.83-9.54-1.55-17.47-8.73-21.21-17.47-3.46-7.92-4.68-16.72-4.51-25.32 36.5-0.09 72.99 0.01 109.48-0.05 9.21 0.15 19.03 2.96 25.41 9.93 7.72 8.9 10.33 21.01 11.02 32.46-1.33 1.68-3.55 1.25-5.4 1.36-13.7-0.08-27.4-0.04-41.1-0.04 14.81 28.72 30.06 57.21 44.78 85.98 18.48 35.55 37.04 71.05 55.36 106.68 8.2 15.5 16.48 30.96 24.26 46.68 1.28 1.78 1.86 5.08 4.62 4.86 6.35 0.2 12.71-0.2 19.07 0.05 6.81 0.28 13.57-2.44 18.53-7.06 6.74-6.16 12.86-13.3 16.38-21.81 21.37-46.29 42.4-92.74 63.72-139.06 4.93-11.58 10.95-22.66 15.82-34.26 2.76-6.63 6.23-12.94 8.8-19.64 0.67-1.42-0.43-2.8-0.9-4.07-3.87-7.85-8-15.58-11.78-23.48-6.11-11.86-11.3-24.46-20.2-34.61-1.73-1.77-3.62-4.05-6.33-3.94-14.71-0.12-29.41 0.01-44.11-0.02-8.2 0.1-16.23-3.87-21.27-10.32-7.37-9.19-9.77-21.28-10.21-32.79M356.3 316.3c0.44 0.44 0.44 0.44 0 0zM219.47 483.85c28.67-4.55 58.94 0.94 83.94 15.8 38.07 21.98 63.73 65.1 62.36 109.35 0.96 29.34-10.21 58.44-28.8 80.94-23.27 28.23-59.31 45.7-95.97 45.7-30.51 0.66-61.05-10.57-84.08-30.57-24.37-20.76-40.4-51.12-43.46-83.01-3.82-34.17 7.38-69.7 29.96-95.64 19.27-22.57 46.73-37.95 76.05-42.57m-40.45 32.18c-28.07 18.11-47.4 49.54-49.72 82.98-0.15 7-0.19 14 0.06 20.99 1.75 24.55 13.1 47.92 30.02 65.61 15.16 16.08 35.42 27.09 56.92 31.92 11.04 2.58 22.44 2.41 33.69 1.94 15.59-1.4 30.73-6.5 44.36-14.12 30.08-16.87 51.25-48.6 55.24-82.86-44.44-0.13-88.89-0.06-133.34 0.06 0.35-7.52 1.8-15.18 5.54-21.79 3.26-6.07 8.73-10.91 15.09-13.54 5.15-1.86 10.69-2.32 16.13-2.57 27.66 0.03 55.32-0.03 82.99 0.04 3.96-0.01 8 1.16 11.85-0.3-3.06-11.44-7.15-22.66-13.46-32.74-19.76-32.98-57.72-54.84-96.39-53.39-20.91-0.39-41.48 6.59-58.98 17.77zM762.47 483.95c25.32-4.08 51.94-0.59 75.08 10.6 29.47 13.88 53.11 39.62 64.43 70.17 5.05 13.82 8.09 28.52 7.69 43.29 0.81 26.48-7.86 52.96-23.2 74.47-14.4 20.11-34.69 35.97-57.78 44.85-25.22 9.72-53.6 11.06-79.6 3.69-27.75-7.66-52.62-25.24-69.23-48.74-15.69-22.04-24.06-49.23-23.33-76.28 0.68-35.94 17.65-71.22 45.38-94.11 17.21-14.52 38.38-24.18 60.56-27.94m-5.42 17.8c11.95 22.34 22.76 45.27 34.09 67.93 4.16 7.77 5.63 16.86 3.81 25.5-1.49 5.46-4.6 10.34-8.19 14.67-3.85 4.56-9.13 7.5-13.92 10.92-1.2-1.74-2.32-3.52-3.26-5.4-15.18-31.03-31.04-61.71-45.88-92.91-0.85-1.83-2.04-3.48-3.38-4.97-5.74 4.5-11.65 8.84-16.73 14.1-10.25 11.45-19.17 24.36-24.29 38.95-7.21 18.51-8.67 39.18-4.88 58.63 4.81 30.5 24.49 57.52 50.22 74.04 13.92 8.45 29.64 14.11 45.82 16.05 15.48 1.16 31.39 0.66 46.18-4.52 12.41-3.75 23.89-10.1 34.24-17.84 21.65-16.51 36.63-41.3 41.59-68.04 1.49-8.19 1.22-16.56 1.21-24.85 0.12-15.16-4.14-30.17-10.88-43.66-15-31.79-46.33-55.02-80.94-60.8-9.51-1.73-19.24-1.37-28.84-1.05-5.39 0.62-11.01 0.83-15.97 3.25z" fill="#ec6066" /><path d="M225.54 480.71c4.72-1.28 9.63-0.66 14.45-0.77 4.49 0.06 9.08-0.44 13.47 0.77-9.29 0.33-18.63 0.31-27.92 0zM769.52 480.73c4.37-1.33 8.99-0.66 13.49-0.78 4.81 0.11 9.72-0.51 14.44 0.75-9.3 0.35-18.64 0.29-27.93 0.03z" fill="#ec6066" /></svg>