<?xml version="1.0" standalone="no"?><!DOCTYPE svg PUBLIC "-//W3C//DTD SVG 1.1//EN" "http://www.w3.org/Graphics/SVG/1.1/DTD/svg11.dtd"><svg class="icon" width="200px" height="200.00px" viewBox="0 0 1024 1024" version="1.1" xmlns="http://www.w3.org/2000/svg"><path d="M522.3424 81.92c155.66848 0 282.29632 126.48448 282.29632 282.3168 0 7.12704 1.86368 14.09024 5.36576 20.29568 10.58816 18.6368 15.95392 38.17472 15.95392 57.97888 0 2.4576-0.12288 4.89472-0.32768 7.3728a41.1648 41.1648 0 0 0 10.73152 31.08864c19.16928 20.74624 44.81024 54.43584 58.24512 97.32096 27.32032 87.06048 16.19968 162.69312-11.9808 172.1344-2.47808 0.8192-4.93568 1.24928-7.51616 1.24928-6.47168 0-13.66016-2.70336-20.80768-7.86432a40.91904 40.91904 0 0 0-31.35488-6.94272 40.96 40.96 0 0 0-26.68544 17.94048l-1.18784 1.82272a40.83712 40.83712 0 0 0-6.06208 31.744c2.37568 10.97728 9.15456 20.48 18.75968 26.29632 16.1792 9.80992 35.49184 26.39872 35.49184 49.68448 0 43.58144-67.50208 77.70112-153.66144 77.70112-50.64704 0-97.9968-12.51328-126.6688-33.52576a40.7552 40.7552 0 0 0-24.08448-7.8848c-0.7168 0-1.41312 0-2.1504 0.06144a272.85504 272.85504 0 0 1-29.16352-0.02048c-0.75776-0.04096-1.49504-0.08192-2.2528-0.08192-8.64256 0-17.08032 2.78528-24.08448 7.90528-28.65152 21.01248-76.00128 33.54624-126.68928 33.54624-86.13888 0-153.62048-34.11968-153.62048-77.70112 0-23.38816 19.39456-39.97696 35.65568-49.80736a40.98048 40.98048 0 0 0 12.94336-57.81504l-1.37216-2.08896a40.96 40.96 0 0 0-34.22208-18.6368 40.96 40.96 0 0 0-23.90016 7.74144c-7.0656 5.14048-14.27456 7.86432-20.86912 7.86432-2.58048 0-5.03808-0.4096-7.43424-1.20832-28.18048-9.48224-39.28064-85.07392-11.9808-172.09344 13.57824-43.3152 39.50592-77.25056 58.88-98.05824 7.7824-8.3968 11.71456-19.6608 10.8544-31.10912a90.8288 90.8288 0 0 1-0.26624-6.656c0-19.59936 5.24288-38.89152 15.62624-57.38496 3.42016-6.12352 5.24288-13.04576 5.24288-20.09088v-1.14688C240.0256 208.40448 366.67392 81.92 522.3424 81.92m0-40.96c-178.176 0-323.15392 144.87552-323.15392 322.92864v1.14688C185.344 389.7344 178.31936 415.744 178.31936 442.49088c0 3.21536 0.12288 6.49216 0.38912 9.80992-23.8592 25.7024-52.49024 64.34816-67.97312 113.70496-28.93824 92.34432-25.47712 201.9328 37.96992 223.27296 6.67648 2.19136 13.5168 3.31776 20.41856 3.31776 15.11424 0 30.49472-5.28384 44.81024-15.62624l1.59744 2.43712c-35.55328 21.504-55.43936 51.46624-55.43936 84.91008 0 68.77184 81.77664 118.6816 194.4576 118.6816 59.8016 0 115.17952-15.33952 150.75328-41.43104a281.72288 281.72288 0 0 0 33.5872 0.04096c35.59424 26.07104 90.97216 41.41056 150.7328 41.41056 112.68096 0 194.49856-49.90976 194.49856-118.6816 0-33.36192-19.80416-63.26272-55.21408-84.76672l1.61792-2.43712c14.2336 10.24 29.53216 15.48288 44.58496 15.48288 6.92224 0 13.78304-1.08544 20.45952-3.33824 63.52896-21.34016 66.99008-130.99008 37.96992-223.29344-15.36-48.96768-43.64288-87.3472-67.19488-112.88576 0.28672-3.54304 0.4096-7.0656 0.4096-10.60864 0-27.05408-7.168-53.32992-21.2992-78.27456v-0.34816C845.45536 185.83552 700.5184 40.96 522.3424 40.96z" fill="#46a5de" /></svg>